<?xml version="1.0" encoding="UTF-8" standalone="no"?>
<!-- Created with Inkscape (http://www.inkscape.org/) -->
<svg
   xmlns:svg="http://www.w3.org/2000/svg"
   xmlns="http://www.w3.org/2000/svg"
   version="1.0"
   width="32"
   height="48"
   id="svg2">
  <defs
     id="defs4" />
  <g
     id="layer1">
    <path
       d="M 17.635174,12.050671 L 17.635174,20.130749 L 22.529705,13.745983 L 21.039471,11.285046 L 24.635174,9.4393425 L 26.13908,12.078014 L 17.635174,23.070202 L 17.635174,23.753796 L 26.303143,36.660046 L 22.666424,38.451061 L 21.162518,35.935436 L 21.750408,35.620983 L 17.635174,29.523327 L 17.635174,34.076061 L 19.193768,36.660046 L 15.557049,38.451061 L 14.10783,36.044811 L 14.10783,27.636608 L 9.1175957,34.103405 L 10.689861,36.660046 L 7.0394707,38.451061 L 5.4808769,35.935436 L 14.10783,24.724499 L 14.10783,24.286999 L 5.4808769,11.285046 L 9.0629082,9.4393425 L 10.635174,12.023327 L 9.8695488,12.378796 L 14.10783,18.572155 L 14.10783,13.786999 L 12.535564,11.285046 L 16.117596,9.4393425 L 17.635174,12.050671"
       id="text2389"
       style="font-size:32px;font-style:normal;font-variant:normal;font-weight:normal;font-stretch:normal;text-align:center;line-height:125%;writing-mode:lr-tb;text-anchor:middle;fill:#000000;fill-opacity:1;stroke:none;stroke-width:1px;stroke-linecap:butt;stroke-linejoin:miter;stroke-opacity:1;font-family:Liberation Serif;-inkscape-font-specification:Liberation Serif" />
  </g>
</svg>
