<?xml version="1.0" encoding="UTF-8" standalone="no"?>
<!-- Created with Inkscape (http://www.inkscape.org/) -->
<svg
   xmlns:svg="http://www.w3.org/2000/svg"
   xmlns="http://www.w3.org/2000/svg"
   version="1.0"
   width="32"
   height="48"
   id="svg2">
  <defs
     id="defs4" />
  <g
     id="layer1">
    <path
       d="M 14.32658,24.054577 L 9.185955,20.745983 L 9.185955,27.951061 L 14.32658,24.054577 M 17.635174,22.742077 L 22.625408,25.90028 L 22.625408,18.927624 L 17.635174,22.742077 M 9.2406425,16.603405 L 16.541424,21.757702 L 22.119549,17.396374 L 22.119549,12.966686 L 21.053143,11.285046 L 24.580486,9.5487175 L 26.152752,12.023327 L 26.152752,34.076061 L 27.711346,36.660046 L 24.129314,38.423717 L 22.625408,35.894421 L 22.625408,30.165905 L 15.447674,25.066296 L 9.185955,30.247936 L 9.185955,34.076061 L 10.744549,36.660046 L 7.1625175,38.423717 L 5.6449394,35.894421 L 5.6449394,13.786999 L 4.1410332,11.257702 L 7.6410332,9.4666862 L 9.2132988,12.050671 L 9.2406425,16.603405"
       id="text2389"
       style="font-size:32px;font-style:normal;font-variant:normal;font-weight:normal;font-stretch:normal;text-align:center;line-height:125%;writing-mode:lr-tb;text-anchor:middle;fill:#000000;fill-opacity:1;stroke:none;stroke-width:1px;stroke-linecap:butt;stroke-linejoin:miter;stroke-opacity:1;font-family:Liberation Serif;-inkscape-font-specification:Liberation Serif" />
  </g>
</svg>
