<?xml version="1.0" encoding="UTF-8" standalone="no"?>
<!-- Created with Inkscape (http://www.inkscape.org/) -->
<svg
   xmlns:svg="http://www.w3.org/2000/svg"
   xmlns="http://www.w3.org/2000/svg"
   version="1.0"
   width="32"
   height="48"
   id="svg2">
  <defs
     id="defs4" />
  <g
     id="layer1">
    <path
       d="M 13.01408,34.076061 L 14.586346,36.660046 L 10.976971,38.451061 L 9.4593925,35.935436 L 11.168377,35.060436 L 14.080486,25.872936 L 11.031658,16.384655 L 5.4261894,34.308483 L 6.88908,36.660046 L 3.2523613,38.451061 L 1.7347832,35.935436 L 3.4437675,35.060436 L 10.101971,13.609264 L 8.6800957,11.285046 L 12.262127,9.4393425 L 13.834393,12.023327 L 13.096111,12.378796 L 15.789471,20.527233 L 17.894939,13.841686 L 17.840252,13.609264 L 16.404705,11.285046 L 19.986736,9.4393425 L 21.559002,12.023327 L 20.834393,12.378796 L 28.080486,34.363171 L 28.613689,34.076061 L 30.185955,36.660046 L 26.535564,38.451061 L 25.031658,35.935436 L 25.086346,35.894421 L 18.70158,16.302624 L 16.568768,22.933483 L 20.355877,34.363171 L 20.88908,34.076061 L 22.447674,36.660046 L 18.810955,38.451061 L 17.307049,35.935436 L 17.361736,35.894421 L 14.859783,28.279186 L 13.01408,34.076061"
       id="text2389"
       style="font-size:32px;font-style:normal;font-variant:normal;font-weight:normal;font-stretch:normal;text-align:center;line-height:125%;writing-mode:lr-tb;text-anchor:middle;fill:#000000;fill-opacity:1;stroke:none;stroke-width:1px;stroke-linecap:butt;stroke-linejoin:miter;stroke-opacity:1;font-family:Liberation Serif;-inkscape-font-specification:Liberation Serif" />
  </g>
</svg>
