<?xml version="1.0" encoding="UTF-8" standalone="no"?>
<!-- Created with Inkscape (http://www.inkscape.org/) -->
<svg
   xmlns:svg="http://www.w3.org/2000/svg"
   xmlns="http://www.w3.org/2000/svg"
   version="1.0"
   width="32"
   height="48"
   id="svg2">
  <defs
     id="defs4" />
  <g
     id="layer1">
    <path
       d="M 16.309002,21.839733 L 18.168377,19.433483 L 16.309002,16.726452 L 14.463299,19.132702 L 16.309002,21.839733 M 10.662518,24.054577 L 12.508221,26.77528 L 14.244549,24.533092 L 12.398846,21.785046 L 10.662518,24.054577 M 19.111736,25.954967 L 20.957439,23.576061 L 19.221111,21.033092 L 17.375408,23.411999 L 19.111736,25.954967 M 15.338299,30.890514 L 17.047283,28.675671 L 15.310955,26.105358 L 13.574627,28.333874 L 15.338299,30.890514 M 10.430096,29.454967 L 7.54533,25.175671 L 11.359783,20.226452 L 5.4808769,11.285046 L 9.0629082,9.4393425 L 10.635174,12.023327 L 9.8695488,12.378796 L 13.396893,17.560436 L 17.293377,12.488171 L 20.205486,16.753796 L 22.529705,13.745983 L 21.271893,11.572155 L 24.635174,9.4393425 L 26.193768,11.954967 L 21.299236,18.339733 L 24.101971,22.454967 L 20.205486,27.527233 L 26.303143,36.660046 L 22.666424,38.451061 L 21.271893,36.044811 L 21.750408,35.620983 L 18.100018,30.247936 L 14.299236,35.169811 L 11.496502,31.027233 L 9.1175957,34.103405 L 10.512127,36.263561 L 7.0394707,38.451061 L 5.4808769,35.935436 L 10.430096,29.454967"
       id="text2389"
       style="font-size:32px;font-style:normal;font-variant:normal;font-weight:normal;font-stretch:normal;text-align:center;line-height:125%;writing-mode:lr-tb;text-anchor:middle;fill:#000000;fill-opacity:1;stroke:none;stroke-width:1px;stroke-linecap:butt;stroke-linejoin:miter;stroke-opacity:1;font-family:Liberation Serif;-inkscape-font-specification:Liberation Serif" />
  </g>
</svg>
