<?xml version="1.0" encoding="UTF-8" standalone="no"?>
<!-- Created with Inkscape (http://www.inkscape.org/) -->
<svg
   xmlns:svg="http://www.w3.org/2000/svg"
   xmlns="http://www.w3.org/2000/svg"
   version="1.0"
   width="32"
   height="48"
   id="svg2">
  <defs
     id="defs4" />
  <g
     id="layer1">
    <path
       d="M 14.832439,23.945202 L 14.832439,14.484264 L 9.4320488,19.132702 L 14.832439,23.945202 M 18.277752,25.066296 L 23.008221,20.472546 L 18.277752,16.220592 L 18.277752,25.066296 M 18.387127,30.781139 L 18.387127,33.693249 L 18.687908,37.439342 L 17.156658,37.890514 L 14.32658,37.439342 L 14.627361,33.638561 L 14.627361,29.988171 L 8.8715019,34.636608 L 6.8207207,32.790905 L 9.623455,30.49403 L 10.635174,31.218639 L 14.435955,27.978405 L 5.6996269,19.911999 L 16.363689,10.833874 L 26.426189,19.638561 L 18.633221,26.966686 L 23.623455,31.451061 L 24.744549,30.439342 L 25.578533,31.286999 L 22.133221,34.363171 L 18.387127,30.781139"
       id="text2389"
       style="font-size:32px;font-style:normal;font-variant:normal;font-weight:normal;font-stretch:normal;text-align:center;line-height:125%;writing-mode:lr-tb;text-anchor:middle;fill:#000000;fill-opacity:1;stroke:none;stroke-width:1px;stroke-linecap:butt;stroke-linejoin:miter;stroke-opacity:1;font-family:Liberation Serif;-inkscape-font-specification:Liberation Serif" />
  </g>
</svg>
