<?xml version="1.0" encoding="UTF-8" standalone="no"?>
<!-- Created with Inkscape (http://www.inkscape.org/) -->
<svg
   xmlns:svg="http://www.w3.org/2000/svg"
   xmlns="http://www.w3.org/2000/svg"
   version="1.0"
   width="32"
   height="48"
   id="svg2">
  <defs
     id="defs4" />
  <g
     id="layer1">
    <path
       d="M 17.348064,28.812389 L 22.133221,24.615124 L 15.023846,19.132702 L 10.211346,23.329967 L 17.348064,28.812389 M 17.881268,16.548717 L 26.275799,23.27528 L 18.250408,30.070202 L 23.869549,34.814342 L 24.799236,34.021374 L 26.221111,35.197155 L 22.803143,38.451061 L 15.365643,32.517467 L 8.3382988,38.451061 L 5.6449394,35.538952 L 8.748455,32.90028 L 10.512127,34.308483 L 13.957439,31.341686 L 5.4535332,24.615124 L 13.478924,17.80653 L 7.8597832,13.076061 L 6.9847832,13.814342 L 5.5082207,12.693249 L 8.9261894,9.4393425 L 16.363689,15.372936 L 23.391033,9.4393425 L 26.084393,12.351452 L 23.117596,14.812389 L 21.463299,13.417858 L 17.881268,16.548717"
       id="text2389"
       style="font-size:32px;font-style:normal;font-variant:normal;font-weight:normal;font-stretch:normal;text-align:center;line-height:125%;writing-mode:lr-tb;text-anchor:middle;fill:#000000;fill-opacity:1;stroke:none;stroke-width:1px;stroke-linecap:butt;stroke-linejoin:miter;stroke-opacity:1;font-family:Liberation Serif;-inkscape-font-specification:Liberation Serif" />
  </g>
</svg>
